<?xml version="1.0" encoding="iso-8859-1"?>
<!-- Generator: Adobe Illustrator 18.0.0, SVG Export Plug-In . SVG Version: 6.00 Build 0)  -->
<!DOCTYPE svg PUBLIC "-//W3C//DTD SVG 1.1//EN" "http://www.w3.org/Graphics/SVG/1.1/DTD/svg11.dtd">
<svg version="1.1" id="Capa_1" xmlns="http://www.w3.org/2000/svg" xmlns:xlink="http://www.w3.org/1999/xlink" x="0px" y="0px"
	 viewBox="0 0 59.48 59.48" style="enable-background:new 0 0 59.48 59.48;" xml:space="preserve">
<g>
	<path d="M24.929,31.978c-0.391-0.391-1.023-0.391-1.414,0c-1.279,1.279-1.984,2.979-1.984,4.785s0.705,3.506,1.984,4.785
		c0.195,0.195,0.451,0.293,0.707,0.293s0.512-0.098,0.707-0.293c0.391-0.391,0.391-1.023,0-1.414
		c-0.901-0.901-1.398-2.099-1.398-3.371s0.497-2.47,1.398-3.371C25.319,33.001,25.319,32.368,24.929,31.978z"/>
	<path d="M25.282,13.101c-3.679-0.638-7.191,1.821-7.836,5.496c-0.456,2.59-2.932,4.324-5.521,3.87
		c-0.547-0.091-1.062,0.269-1.158,0.813s0.268,1.063,0.812,1.158c0.395,0.069,0.787,0.103,1.174,0.103
		c3.222,0,6.085-2.316,6.662-5.598c0.454-2.589,2.934-4.323,5.521-3.871c0.545,0.089,1.063-0.27,1.158-0.813
		C26.19,13.715,25.826,13.197,25.282,13.101z"/>
	<path d="M55.3,22.684c-0.774-1.203-1.206-3.811-1.11-5.398c0.225-3.707-1.745-7.388-4.789-8.95
		c-0.587-0.302-1.115-0.454-1.581-0.588c-0.801-0.231-1.132-0.327-1.435-0.956c-1.596-3.316-3.356-3.782-6.711-3.564
		c-0.311,0.006-0.732-0.46-1.163-0.92c-0.741-0.793-1.731-1.852-3.301-2.032l-0.505-0.05c-1.682,0-3.309,0.501-4.463,1.374
		c-0.327,0.246-0.731,0.248-1.007,0.006c-1.371-1.203-3.437-2.094-4.858-1.308c-1.558,0.307-2.556,1.295-3.293,2.025
		c-0.583,0.577-0.964,0.944-1.281,0.904c-3.351-0.215-5.114,0.249-6.711,3.564c-0.302,0.629-0.633,0.725-1.434,0.956
		c-0.465,0.134-0.993,0.286-1.581,0.588c-3.044,1.563-5.013,5.243-4.789,8.95c0.096,1.588-0.336,4.195-1.11,5.398
		c-1.908,2.969-1.908,7.114,0,10.082c0.295,0.458,0.727,0.991,1.227,1.609c0.892,1.102,2.386,2.945,2.335,3.789
		c-0.227,3.736,2.053,8.041,5.082,9.596c0.545,0.28,0.637,0.563,0.843,1.42c0.114,0.474,0.256,1.063,0.562,1.697
		c0.823,1.711,2.114,2.201,3.056,2.561c0.936,0.355,1.323,0.503,1.465,1.529c0.329,2.383,1.604,3.99,3.497,4.409
		c0.317,0.069,0.644,0.104,0.975,0.104c2.132,0,4.458-1.415,5.931-3.701c0.177-0.274,0.471-0.305,0.588-0.305
		s0.411,0.03,0.588,0.305c1.702,2.641,4.542,4.114,6.906,3.598c1.894-0.419,3.168-2.026,3.497-4.409
		c0.142-1.026,0.529-1.174,1.465-1.529c0.942-0.359,2.233-0.85,3.057-2.561c0.305-0.634,0.447-1.224,0.561-1.697
		c0.207-0.856,0.298-1.14,0.843-1.42c3.028-1.555,5.308-5.859,5.082-9.596c-0.051-0.844,1.443-2.688,2.335-3.789
		c0.5-0.618,0.932-1.151,1.227-1.609C57.208,29.798,57.208,25.653,55.3,22.684z M54.703,28.297
		c-0.089-0.461-0.476-0.816-0.963-0.816c-0.552,0-1,0.448-1,1c0,0.552,0.448,1,1,1c0.404,0,0.748-0.242,0.905-0.587
		c-0.14,0.917-0.449,1.799-0.92,2.59c-0.545,0.008-0.985,0.45-0.985,0.997c0,0.103,0.03,0.196,0.058,0.289
		c-0.091,0.113-0.184,0.228-0.279,0.345c-0.122,0.15-0.246,0.304-0.369,0.458c-0.126-0.057-0.263-0.093-0.41-0.093
		c-0.552,0-1,0.448-1,1c0,0.244,0.098,0.46,0.243,0.634c-0.172,0.25-0.33,0.499-0.476,0.748c-0.183-0.227-0.452-0.382-0.767-0.382
		c-0.552,0-1,0.448-1,1c0,0.552,0.448,1,1,1c0.032,0,0.06-0.016,0.091-0.018c-0.064,0.28-0.105,0.556-0.089,0.823
		c0.024,0.391,0.005,0.795-0.041,1.203c-0.533,0.022-0.961,0.454-0.961,0.992c0,0.379,0.219,0.696,0.529,0.866
		c-0.163,0.484-0.351,0.961-0.585,1.414c0.027-0.091,0.056-0.18,0.056-0.28c0-0.552-0.448-1-1-1s-1,0.448-1,1c0,0.552,0.448,1,1,1
		c0.265,0,0.502-0.107,0.681-0.275c-0.713,1.219-1.645,2.245-2.677,2.775c-0.48,0.246-0.819,0.538-1.074,0.85
		c0.041-0.11,0.071-0.226,0.071-0.35c0-0.552-0.448-1-1-1s-1,0.448-1,1c0,0.552,0.448,1,1,1c0.253,0,0.478-0.102,0.654-0.257
		c-0.281,0.485-0.408,1.002-0.525,1.487c-0.062,0.258-0.136,0.523-0.225,0.79c-0.505,0.05-0.905,0.462-0.905,0.981
		c0,0.138,0.028,0.27,0.079,0.39c-0.328,0.289-0.709,0.456-1.137,0.622c-0.208,0.013-0.392,0.092-0.547,0.212
		c-0.972,0.391-2.115,1.029-2.386,2.989c-0.149,1.082-0.608,2.434-1.947,2.729c-1.536,0.341-3.555-0.807-4.793-2.729
		c-0.493-0.764-1.341-1.221-2.269-1.221s-1.776,0.457-2.27,1.221c-1.237,1.922-3.251,3.068-4.792,2.729
		c-1.339-0.296-1.798-1.647-1.947-2.729c-0.304-2.2-1.709-2.735-2.735-3.125c-0.831-0.316-1.488-0.566-1.965-1.559
		c-0.146-0.302-0.236-0.601-0.314-0.896c0.005-0.04,0.023-0.075,0.023-0.116c0-2.757,2.243-5,5-5c0.552,0,1-0.447,1-1s-0.448-1-1-1
		c-2.911,0-5.411,1.788-6.465,4.322c-0.159-0.119-0.333-0.234-0.538-0.34c-2.307-1.184-4.175-4.78-3.999-7.695
		c0.004-0.071-0.011-0.144-0.013-0.216c0.002-0.025,0.014-0.046,0.014-0.072c0-3.309,2.691-6,6-6c4.411,0,8-3.589,8-8
		c0-0.553-0.448-1-1-1s-1,0.447-1,1c0,3.309-2.691,6-6,6c-3.32,0-6.173,2.034-7.382,4.921c-0.437-0.614-0.927-1.223-1.397-1.803
		c-0.444-0.548-0.863-1.065-1.098-1.432c-1.499-2.33-1.499-5.587,0-7.918c1.043-1.622,1.543-4.63,1.423-6.602
		c-0.175-2.893,1.383-5.857,3.706-7.05c0.415-0.213,0.826-0.331,1.222-0.446c0.214-0.062,0.434-0.127,0.655-0.206
		c0.169,0.314,0.489,0.536,0.871,0.536c1.654,0,3,1.346,3,3c0,0.553,0.448,1,1,1s1-0.447,1-1c0-2.445-1.767-4.477-4.089-4.908
		c0.085-0.133,0.167-0.273,0.244-0.432c0.964-2.003,1.705-2.484,3.547-2.484c0.364,0,0.772,0.019,1.233,0.049
		c1.246,0.077,2.079-0.748,2.817-1.479c0.701-0.693,1.362-1.349,2.395-1.506l0.329-0.061l0.158-0.146
		c0.367-0.165,1.536,0.192,2.544,1.077c0.932,0.817,2.265,0.889,3.322,0.219c0.149,0.089,0.314,0.153,0.5,0.153
		c0.531,0,0.954-0.417,0.988-0.939c0.48-0.161,1.005-0.266,1.544-0.302l0.468,0.009c0.016,0,0.029,0.007,0.045,0.007
		C34.768,2.33,34.74,2.401,34.74,2.481c0,0.552,0.448,1,1,1c0.31,0,0.577-0.15,0.76-0.372c0.175,0.168,0.355,0.355,0.551,0.564
		c0.017,0.018,0.034,0.036,0.051,0.054C36.885,3.91,36.74,4.175,36.74,4.481c0,0.552,0.448,1,1,1c0.373,0,0.686-0.214,0.858-0.517
		c0.357,0.177,0.754,0.28,1.206,0.259c0.465-0.029,0.859-0.041,1.225-0.04c0.181,0.184,0.432,0.298,0.711,0.298
		c0.205,0,0.385-0.077,0.544-0.183c0.329,0.079,0.61,0.212,0.869,0.395c-0.244,0.182-0.413,0.46-0.413,0.788c0,0.552,0.448,1,1,1
		c0.241,0,0.453-0.096,0.625-0.238c0.073,0.138,0.144,0.26,0.219,0.415c0.075,0.156,0.157,0.294,0.24,0.425
		c-0.053,0.122-0.084,0.256-0.084,0.398c0,0.552,0.448,1,1,1c0.192,0,0.361-0.068,0.513-0.162c0.321,0.144,0.646,0.243,0.96,0.334
		c-0.278,0.178-0.473,0.474-0.473,0.828c0,0.552,0.448,1,1,1s1-0.448,1-1c0-0.084-0.028-0.16-0.048-0.238
		c1.221,0.697,2.205,1.883,2.819,3.284c-0.439,0.106-0.771,0.483-0.771,0.954c0,0.552,0.448,1,1,1c0.12,0,0.231-0.03,0.338-0.068
		c0.099,0.578,0.152,1.165,0.116,1.752c-0.008,0.136-0.006,0.288-0.009,0.433c-0.136-0.069-0.283-0.116-0.445-0.116
		c-0.552,0-1,0.448-1,1c0,0.552,0.448,1,1,1c0.201,0,0.378-0.074,0.535-0.177c0.172,1.517,0.582,3.122,1.215,4.227
		c-0.428,0.114-0.749,0.486-0.749,0.949c0,0.552,0.448,1,1,1c0.222,0,0.416-0.086,0.582-0.208
		C54.652,26.239,54.778,27.273,54.703,28.297z"/>
	<circle cx="37.74" cy="52.481" r="1"/>
	<circle cx="33.74" cy="52.481" r="1"/>
	<circle cx="35.74" cy="50.481" r="1"/>
	<circle cx="39.74" cy="50.481" r="1"/>
	<circle cx="31.74" cy="50.481" r="1"/>
	<circle cx="39.74" cy="46.481" r="1"/>
	<circle cx="31.74" cy="46.481" r="1"/>
	<circle cx="33.74" cy="44.481" r="1"/>
	<circle cx="35.74" cy="42.481" r="1"/>
	<circle cx="39.74" cy="42.481" r="1"/>
	<circle cx="31.74" cy="42.481" r="1"/>
	<circle cx="37.74" cy="40.481" r="1"/>
	<circle cx="31.74" cy="38.481" r="1"/>
	<circle cx="37.74" cy="36.481" r="1"/>
	<circle cx="33.74" cy="36.481" r="1"/>
	<circle cx="31.74" cy="34.481" r="1"/>
	<circle cx="33.74" cy="32.481" r="1"/>
	<circle cx="35.74" cy="30.481" r="1"/>
	<circle cx="39.74" cy="30.481" r="1"/>
	<circle cx="31.74" cy="30.481" r="1"/>
	<circle cx="37.74" cy="28.481" r="1"/>
	<circle cx="35.74" cy="26.481" r="1"/>
	<circle cx="39.74" cy="26.481" r="1"/>
	<circle cx="31.74" cy="26.481" r="1"/>
	<circle cx="33.74" cy="24.481" r="1"/>
	<circle cx="35.74" cy="22.481" r="1"/>
	<circle cx="37.74" cy="20.481" r="1"/>
	<circle cx="33.74" cy="20.481" r="1"/>
	<circle cx="31.74" cy="18.481" r="1"/>
	<circle cx="37.74" cy="16.481" r="1"/>
	<circle cx="33.74" cy="16.481" r="1"/>
	<circle cx="35.74" cy="14.481" r="1"/>
	<circle cx="39.74" cy="14.481" r="1"/>
	<circle cx="37.74" cy="12.481" r="1"/>
	<circle cx="33.74" cy="12.481" r="1"/>
	<circle cx="31.74" cy="10.481" r="1"/>
	<circle cx="37.74" cy="8.481" r="1"/>
	<circle cx="39.74" cy="6.481" r="1"/>
	<circle cx="31.74" cy="6.481" r="1"/>
	<circle cx="33.74" cy="4.481" r="1"/>
	<circle cx="41.74" cy="48.481" r="1"/>
	<circle cx="45.74" cy="44.481" r="1"/>
	<circle cx="43.74" cy="42.481" r="1"/>
	<circle cx="45.74" cy="40.481" r="1"/>
	<circle cx="47.74" cy="38.481" r="1"/>
	<circle cx="45.74" cy="36.481" r="1"/>
	<circle cx="41.74" cy="36.481" r="1"/>
	<circle cx="45.74" cy="32.481" r="1"/>
	<circle cx="49.74" cy="32.481" r="1"/>
	<circle cx="41.74" cy="32.481" r="1"/>
	<circle cx="45.74" cy="28.481" r="1"/>
	<circle cx="49.74" cy="28.481" r="1"/>
	<circle cx="43.74" cy="26.481" r="1"/>
	<circle cx="45.74" cy="24.481" r="1"/>
	<circle cx="47.74" cy="22.481" r="1"/>
	<circle cx="43.74" cy="22.481" r="1"/>
	<circle cx="45.74" cy="20.481" r="1"/>
	<circle cx="41.74" cy="20.481" r="1"/>
	<circle cx="47.74" cy="18.481" r="1"/>
	<circle cx="49.74" cy="16.481" r="1"/>
	<circle cx="47.74" cy="14.481" r="1"/>
	<circle cx="43.74" cy="14.481" r="1"/>
	<circle cx="49.74" cy="12.481" r="1"/>
	<circle cx="41.74" cy="12.481" r="1"/>
	<circle cx="43.74" cy="10.481" r="1"/>
	<circle cx="51.74" cy="26.481" r="1"/>
	<circle cx="51.74" cy="22.481" r="1"/>
</g>
<g>
</g>
<g>
</g>
<g>
</g>
<g>
</g>
<g>
</g>
<g>
</g>
<g>
</g>
<g>
</g>
<g>
</g>
<g>
</g>
<g>
</g>
<g>
</g>
<g>
</g>
<g>
</g>
<g>
</g>
</svg>
