<?xml version="1.0" encoding="utf-8"?>
<!-- Uploaded to SVGRepo https://www.svgrepo.com -->
<svg version="1.2" baseProfile="tiny" id="love_by_Adioma"
	 xmlns="http://www.w3.org/2000/svg" xmlns:xlink="http://www.w3.org/1999/xlink" x="0px" y="0px" viewBox="0 0 256 256"
	 xml:space="preserve">
<path d="M244.6,152.9l-23.9-54.2l0,0c-2.2-54.8-47.3-98.6-102.8-98.6c-56.8,0-102.8,46-102.8,102.7c0,29.8,12.7,56.6,32.9,75.3V256
	h102.8v-25.8h35c19.3,0,35-15.6,35-34.9v-30.8h16.3C243,164.4,247,158.3,244.6,152.9z M103,115.1l-19.3,0c-19.8,0.7-35.7,17-35.7,37
	c0,0.5,0,0.9,0,1.4c-10.4-14.2-16.5-31.8-16.5-50.7c0-47.7,38.7-86.3,86.4-86.3c22.9,0,43.6,8.9,59.1,23.4
	C176,80.6,143.6,113.6,103,115.1z M191.9,119.2c-6.8,0-12.3-5.5-12.3-12.3s5.5-12.3,12.3-12.3c6.8,0,12.3,5.5,12.3,12.3
	S198.7,119.2,191.9,119.2z M139.9,70.1c8.7-7.7,9.8-21.1,2.1-29.9l0,0c-7.7-8.7-21.1-9.8-29.9-2.1l-3,2.6l-3-2.6
	c-8.7-7.7-22.3-6.6-29.9,2.1l0,0c-7.7,8.8-6.6,22.3,2.1,29.9l30.4,31.1L139.9,70.1z"/>
</svg>
