<?xml version="1.0" encoding="utf-8"?>
<!-- Uploaded to SVGRepo https://www.svgrepo.com -->
<svg version="1.1" id="Layer_1" xmlns="http://www.w3.org/2000/svg" xmlns:xlink="http://www.w3.org/1999/xlink" x="0px" y="0px"
	 viewBox="0 0 203.4 242" style="enable-background:new 0 0 203.4 242;" xml:space="preserve">
<path d="M0,91.9c0,29.3,13.7,55.4,35.1,72.2V242h98v-28.1h14.4c20,0,36.2-16.2,36.2-36.2V152H196c4.1,0,7.4-3.3,7.4-7.4
	c0-1.1-0.2-2-0.6-2.9l-19.1-48.3c0,0-2-20-3.8-27.7C171.9,31.3,133.5,0,91.8,0C41.1,0,0,41.1,0,91.9z M150.8,101.4
	c0-5.6,4.6-10.2,10.3-10.2c5.6,0,10.2,4.6,10.2,10.2c0,5.7-4.6,10.3-10.2,10.3C155.4,111.7,150.8,107.1,150.8,101.4z M11.6,90.7
	c0-43.9,35.6-79.4,79.4-79.4c22.9,0,43.4,9.7,57.9,25.1c0,0,0.9,63.3-70.9,64.9c-49.9,0-46.2,42.3-46.2,42.3
	C19.3,129.5,11.6,111,11.6,90.7z M103,23.7c-4.8-3.5-10.9-5.2-18.1-5.2c-5.5,0-10.2,1.2-14,3.7c-5.5,3.5-8.7,9.3-9.5,17.3
	c-0.1,0.5-0.1,2.2-0.1,2.2c0.4,3.5,3.3,6.3,7,6.3c3.6,0,6.6-2.7,7-6.3l0,0l0,0c0-0.2,0-0.5,0-0.7v-0.1c0.2-2.4,0.9-4.7,2.3-6.9
	c1.6-2.5,4.2-3.7,7.9-3.7c3.8,0,6.4,1,7.8,3s2.1,4.2,2.1,6.7c0,2.1-0.6,4.1-1.9,5.8c-0.7,1-1.6,2-2.8,2.9l-3.5,2.8
	c-3.5,2.7-5.6,5.1-6.5,7.2c-0.8,2.1-1.3,5.8-1.5,11.3h13.1c0-2.6,0.2-4.5,0.6-5.7c0.6-1.9,1.8-3.6,3.7-5.1l3.4-2.7
	c3.5-2.7,5.8-4.9,7-6.7c2.1-2.9,3.1-6.4,3.1-10.6C110.2,32.4,107.8,27.2,103,23.7z M86.1,74.5c5,0,9,4,9,9s-4,9-9,9s-9-4-9-9
	S81.1,74.5,86.1,74.5z"/>
</svg>
