<?xml version="1.0" encoding="iso-8859-1"?>
<!-- Generator: Adobe Illustrator 19.0.0, SVG Export Plug-In . SVG Version: 6.00 Build 0)  -->
<svg version="1.1" id="Layer_1" xmlns="http://www.w3.org/2000/svg" xmlns:xlink="http://www.w3.org/1999/xlink" x="0px" y="0px"
	 viewBox="0 0 512 512" style="enable-background:new 0 0 512 512;" xml:space="preserve">
<rect x="33.854" y="388.137" style="fill:#CFF09E;" width="444.293" height="107.352"/>
<path style="fill:#507C5C;" d="M478.146,327.617c9.122,0,16.516-7.394,16.516-16.516V16.516C494.663,7.394,487.268,0,478.146,0
	H33.854c-9.122,0-16.516,7.394-16.516,16.516v371.615v30.356v76.996c0,9.122,7.394,16.516,16.516,16.516h444.292
	c9.122,0,16.516-7.394,16.516-16.516V388.132c0-9.122-7.394-16.516-16.516-16.516H374.089v-62.929
	c0-36.848-22.406-68.553-54.306-82.229c17.303-16.718,28.094-40.133,28.094-66.036c0-50.661-41.217-91.876-91.876-91.876
	s-91.878,41.217-91.878,91.878c0,50.651,41.2,91.86,91.846,91.876c0.01,0,0.021,0.002,0.031,0.002h28.669
	c31.092,0,56.387,25.295,56.387,56.387v62.929H170.944v-62.929c0-9.122-7.394-16.516-16.516-16.516s-16.516,7.394-16.516,16.516
	v62.929H50.37V33.033h411.26v278.068C461.63,320.223,469.024,327.617,478.146,327.617z M197.157,160.423
	c0-32.447,26.397-58.843,58.843-58.843s58.843,26.397,58.843,58.843S288.447,219.266,256,219.266S197.157,192.869,197.157,160.423z
	 M461.63,404.648v74.319H50.37v-60.48v-13.839H461.63z"/>
<g>
</g>
<g>
</g>
<g>
</g>
<g>
</g>
<g>
</g>
<g>
</g>
<g>
</g>
<g>
</g>
<g>
</g>
<g>
</g>
<g>
</g>
<g>
</g>
<g>
</g>
<g>
</g>
<g>
</g>
</svg>
