<?xml version="1.0" standalone="no"?>
<!DOCTYPE svg PUBLIC "-//W3C//DTD SVG 20010904//EN"
 "http://www.w3.org/TR/2001/REC-SVG-20010904/DTD/svg10.dtd">
<svg version="1.0" xmlns="http://www.w3.org/2000/svg"
 width="300.000000pt" height="169.000000pt" viewBox="0 0 300.000000 169.000000"
 preserveAspectRatio="xMidYMid meet">
<metadata>
Created by potrace 1.10, written by Peter Selinger 2001-2011
</metadata>
<g transform="translate(0.000000,169.000000) scale(0.100000,-0.100000)"
fill="#000000" stroke="none">
<path d="M1345 1574 c-22 -19 -39 -38 -38 -42 0 -4 -5 -13 -13 -20 -8 -7 -14
-11 -14 -9 0 2 -34 -29 -75 -70 -41 -40 -75 -78 -75 -84 0 -5 -4 -8 -9 -5 -5
3 -11 -1 -15 -9 -6 -18 2 -45 15 -45 5 0 9 -5 9 -11 0 -12 25 -39 37 -40 4 -1
7 -5 6 -10 -2 -5 0 -8 5 -6 4 1 8 -2 10 -8 2 -5 14 -16 28 -23 13 -7 22 -17
19 -23 -4 -5 -3 -8 2 -7 4 1 21 -10 37 -25 16 -15 26 -27 22 -27 -4 0 -1 -7 8
-15 8 -8 20 -15 27 -15 7 0 10 -3 6 -6 -7 -8 11 -27 41 -43 12 -7 20 -16 17
-22 -4 -5 -1 -8 7 -7 7 2 12 -3 10 -9 -1 -7 3 -13 9 -13 12 0 99 -87 99 -99 0
-5 9 -11 21 -14 12 -3 18 -10 14 -17 -3 -6 -3 -9 2 -8 11 3 69 -52 66 -63 -2
-5 4 -9 12 -9 8 0 15 -9 15 -20 0 -11 -4 -20 -10 -20 -5 0 -10 -7 -10 -15 0
-8 -4 -15 -9 -15 -5 0 -38 -29 -75 -65 -36 -36 -63 -65 -59 -65 4 0 -8 -11
-26 -24 -18 -13 -39 -33 -48 -43 -8 -10 -12 -13 -9 -6 4 6 -1 13 -9 15 -9 2
-71 59 -139 127 -103 102 -127 122 -145 116 -11 -3 -21 -13 -21 -21 0 -8 -4
-12 -10 -9 -5 3 -10 -1 -10 -10 0 -9 -4 -14 -8 -11 -10 6 -58 -45 -54 -56 1
-5 -1 -7 -6 -5 -4 1 -7 0 -7 -3 0 -11 -70 -76 -77 -72 -5 2 -8 -3 -8 -11 0 -7
-11 -19 -25 -25 -14 -6 -25 -18 -25 -26 0 -7 -7 -16 -15 -20 -28 -10 -15 -36
55 -106 38 -38 67 -70 63 -70 -3 0 4 -11 17 -25 12 -13 25 -23 29 -22 3 1 28
-20 54 -46 26 -26 55 -47 64 -47 9 0 76 60 149 134 74 74 134 128 134 120 0
-8 3 -13 8 -11 7 3 56 -42 57 -53 0 -3 3 -4 7 -3 5 2 7 -3 5 -10 -1 -6 4 -11
10 -10 7 2 12 -3 10 -10 -1 -6 4 -11 10 -10 7 2 12 -3 10 -10 -1 -6 4 -11 10
-10 7 2 12 -2 10 -9 -1 -7 3 -12 8 -13 10 0 68 -55 73 -68 1 -4 5 -6 8 -4 3 1
10 -6 15 -15 6 -10 18 -18 29 -18 18 0 297 269 293 282 -2 5 1 8 6 8 8 0 157
147 280 275 11 12 -13 56 -39 71 -16 10 -27 21 -24 26 3 4 -2 8 -11 8 -9 0
-14 4 -11 8 3 5 -6 15 -19 22 -13 7 -22 17 -19 22 3 4 1 8 -4 8 -12 0 -387
373 -384 383 1 5 -2 6 -8 2 -5 -3 -10 1 -10 10 0 9 -3 15 -7 13 -5 -2 -58 47
-119 109 -61 62 -109 113 -107 113 3 0 -10 12 -29 27 -18 16 -39 34 -46 40
-20 20 -34 16 -77 -23z m190 -394 l-140 -140 -138 138 -138 138 138 141 138
141 140 -139 140 -139 -140 -140z m430 -150 l280 -280 -282 -282 -283 -283
-135 135 c-74 74 -134 138 -133 142 8 21 232 237 241 231 6 -3 8 -2 4 3 -3 5
1 17 8 27 11 15 26 4 146 -118 74 -74 138 -135 144 -135 5 0 -52 62 -128 138
l-137 137 121 120 c67 66 113 107 102 90 -57 -85 -83 -200 -60 -270 24 -74 86
-187 87 -158 0 6 -7 19 -16 27 -8 9 -13 16 -10 16 3 0 -7 26 -21 57 -42 90
-39 175 9 275 20 42 34 78 32 81 -3 2 2 10 11 17 8 7 15 17 15 24 0 6 -63 -52
-140 -129 l-140 -140 -137 138 -138 137 123 122 123 123 -30 -60 c-17 -34 -32
-70 -34 -80 -1 -11 -5 -24 -8 -30 -12 -22 -9 -90 7 -144 9 -31 17 -60 18 -66
4 -19 47 -97 52 -93 2 3 -10 38 -28 79 -27 64 -32 86 -32 159 0 73 5 95 31
155 16 39 31 75 33 80 7 24 13 35 19 35 3 0 132 -126 286 -280z m-703 -705
l-137 -141 -140 138 -140 138 119 119 c66 66 124 117 130 114 6 -3 8 -2 3 2
-4 5 1 17 10 27 16 18 22 14 155 -119 l138 -137 -138 -141z"/>
<path d="M1349 1493 c-20 -58 -24 -87 -24 -193 1 -110 4 -131 24 -173 13 -26
25 -46 27 -44 2 1 -6 32 -17 67 -34 108 -35 180 -5 299 15 57 25 106 22 108
-2 2 -15 -26 -27 -64z"/>
<path d="M1630 661 c-44 -82 -62 -220 -39 -292 14 -44 57 -139 63 -139 3 0 -9
37 -26 82 -41 109 -42 193 -5 293 26 68 29 97 7 56z"/>
<path d="M1057 633 c-65 -129 -71 -216 -24 -309 44 -84 59 -93 22 -12 -48 106
-48 172 0 282 38 89 40 115 2 39z"/>
</g>
</svg>
